<svg xmlns="http://www.w3.org/2000/svg" version="1.1" xmlns:xlink="http://www.w3.org/1999/xlink" xmlns:svgjs="http://svgjs.dev/svgjs" width="1440" height="700" preserveAspectRatio="none" viewBox="0 0 1440 700"><g mask="url(&quot;#SvgjsMask1016&quot;)" fill="none"><rect width="1440" height="700" x="0" y="0" fill="rgba(250, 250, 250, 1)"></rect><path d="M921.59-124.54C778.71-82.03 744.36 315.05 528.13 323.5 311.89 331.95 331.4 236 134.66 236-62.07 236-158.03 322.97-258.8 323.5" stroke="rgba(40, 66, 123, 1)" stroke-width="2"></path><path d="M1344.27-88.15C1197.46-70.47 1113.63 257.07 865.66 259.37 617.7 261.67 626.36 171.87 387.06 171.87 147.75 171.87 30.08 259.01-91.55 259.37" stroke="rgba(40, 66, 123, 1)" stroke-width="2"></path><path d="M833.34-28.24C625.19 41.46 572.68 644.28 276.36 650.53-19.96 656.78-125.72 384.74-280.62 377.53" stroke="rgba(40, 66, 123, 1)" stroke-width="2"></path><path d="M823.21-10.86C680.41 106.02 765.04 657.68 524.01 663.94 282.98 670.2 95.2 351.95-74.39 341.94" stroke="rgba(40, 66, 123, 1)" stroke-width="2"></path><path d="M1249.93-37.95C1043.96-17.28 910.26 422.42 562.16 423.08 214.05 423.74 56.87 181.7-125.62 178.08" stroke="rgba(40, 66, 123, 1)" stroke-width="2"></path></g><defs><mask id="SvgjsMask1016"><rect width="1440" height="700" fill="#ffffff"></rect></mask></defs></svg>